<?xml version="1.0" encoding="utf-8"?>
<!-- Generator: Adobe Illustrator 19.0.0, SVG Export Plug-In . SVG Version: 6.00 Build 0)  -->
<svg version="1.1" xmlns="http://www.w3.org/2000/svg" xmlns:xlink="http://www.w3.org/1999/xlink" x="0px" y="0px"
	 viewBox="-329 256 300 50" style="enable-background:new -329 256 300 50;" xml:space="preserve">
<style type="text/css">
	.st0{display:none;}
	.st1{display:inline;}
	.st2{fill:#3BA934;}
	.st3{fill:#DCDB03;}
	.st4{fill:#7EB928;}
	.st5{fill:#354E53;}
	.st6{fill:#73CC3A;}
	.st7{fill:#9BA6BB;}
	.st8{fill:#386D0F;}
	.st9{fill:#3A4BDB;}
</style>
<g id="Layer_1" class="st0">
	<g class="st1">
		<g>
			<path class="st2" d="M-269.9,285.9c0,0-5.4-6.6-7.9-10.1c0,0-6.4-9.3,1.6-13.7l0,0c0,0-4.6,1.8-7.2,3.2c-0.1,0-0.1,0.1-0.2,0.1
				c-7.7,4.5-1.4,13.2-1.4,13.2c2.5,3.5,7.9,10.3,7.9,10.3c4.7,8.1,0,11.4,0,11.4l1.1-0.5l5.8-2.6l0.3-0.1
				C-269.9,297-262.8,294-269.9,285.9z"/>
			<g>
				<path class="st3" d="M-291.8,261.7c-0.1,0.1-0.2,0.1-0.3,0.1c-1.5,0.2-2.7,0.5-3.7,0.9c-1,0.4-2,1.1-2.9,2
					c-0.5,0.5-1,1.1-1.4,1.8c-0.4,0.7-0.7,1.3-0.9,1.8c-0.2,0.6-0.4,1.1-0.5,1.6c-0.1,0.5-0.2,0.9-0.2,1.2s-0.1,0.5-0.1,0.5
					c-0.1,0.1-0.6,0.2-1.5,0.2c-0.9,0-1.4-0.1-1.5-0.2c-0.1-0.1-0.1-0.2-0.1-0.3c0-1.6,0.4-3.2,1-4.8c0.7-1.6,1.6-3,2.8-4.1
					c1.2-1.2,2.5-2.1,4.1-2.8c1.6-0.7,3.2-1,4.8-1c0.1,0,0.2,0,0.3,0.1c0.1,0.1,0.2,0.6,0.2,1.5C-291.7,261-291.7,261.6-291.8,261.7
					z"/>
				<path class="st3" d="M-291.8,266.6c0,0-0.2,0.1-0.6,0.1c-0.4,0.1-0.8,0.2-1.4,0.5c-0.5,0.2-1,0.5-1.4,0.9
					c-0.4,0.4-0.7,0.9-0.9,1.4c-0.2,0.5-0.4,1-0.5,1.4c-0.1,0.4-0.1,0.6-0.1,0.6c-0.1,0.1-0.6,0.2-1.5,0.2c-0.9,0-1.4-0.1-1.5-0.2
					c-0.1-0.1-0.1-0.2-0.1-0.3c0-0.9,0.2-1.9,0.7-2.9c0.5-1,1-1.8,1.7-2.5c0.7-0.7,1.5-1.3,2.5-1.7c1-0.4,1.9-0.7,2.9-0.7
					c0.1,0,0.2,0,0.3,0.1c0.1,0.1,0.2,0.6,0.2,1.5C-291.7,266-291.7,266.5-291.8,266.6z"/>
			</g>
			<path class="st4" d="M-263,282.9c0,0-5.4-6.6-7.9-10.1c0,0-6.4-8.7,1.6-13c0,0-4.3,1.1-6.9,2.3l0,0c-8,4.4-1.6,13.7-1.6,13.7
				c2.5,3.5,7.9,10.1,7.9,10.1c7,8.1,0,11.1,0,11.1l-0.3,0.1c0,0-0.1,0.1-0.1,0.1l7.2-3.2C-263,294-256,291-263,282.9z"/>
			<path class="st5" d="M-277.1,288.9c0,0-5.4-6.7-7.9-10.3c0,0-6.3-8.7,1.4-13.2c-1.4,0.6-4.5,1.9-6.5,2.9
				c-8,4.4-1.6,13.3-1.6,13.3c2.5,3.5,7.9,10.3,7.9,10.3c4.7,8.1,0,11.4,0,11.4l7.2-3.2c0,0,0.2-0.1,0.5-0.3l-1.1,0.5
				C-277.1,300.2-272.4,297-277.1,288.9z"/>
			<path class="st3" d="M-266.2,279c-1.7,1.3-4.7,3.5-6.5,5c-1.6,1.3-3.9,0.8-5.1-0.8c-1.2-1.6-0.9-3.9,0.7-5.1
				c1.2-1,3.3-2.5,4.5-3.5c0.2-0.2,1.7-1.3,1.9-1.5 M-274.4,280.6c-0.6-0.7-1.6-0.8-2.3-0.3c-0.7,0.6-0.9,1.6-0.3,2.3
				c0.5,0.7,1.6,0.8,2.3,0.3C-273.9,282.4-273.8,281.3-274.4,280.6z"/>
		</g>
		<g>
			<path d="M-252.6,277.9h3.6c0.1,1,0.5,1.8,1.2,2.2c0.7,0.5,1.6,0.7,2.8,0.7c1.1,0,1.9-0.2,2.4-0.6c0.6-0.4,0.8-0.9,0.8-1.7
				c0-1.1-1.6-2-4.7-2.7l-0.1-0.1l-0.4-0.1c-1.8-0.4-2.9-0.8-3.5-1.2c-0.7-0.4-1.2-0.9-1.4-1.7c-0.3-0.6-0.5-1.4-0.5-2.4
				c0-1.7,0.6-3,1.8-4c1.2-0.9,2.9-1.4,5.1-1.4c2.1,0,3.7,0.5,4.9,1.5c1.2,1.1,1.8,2.5,1.9,4.2h-2.1c-0.8,0-1.4-0.4-1.7-1.1
				c-0.2-0.3-0.4-0.6-0.7-0.9c-0.6-0.4-1.5-0.7-2.5-0.7c-1,0-1.8,0.2-2.2,0.6c-0.5,0.4-0.8,0.9-0.8,1.6c0,0.9,1,1.6,3,2.1
				c0.6,0.2,1,0.3,1.3,0.3c0.6,0.2,1.2,0.4,1.6,0.5c0.5,0.1,0.8,0.2,1.1,0.3c0.5,0.2,1,0.4,1.4,0.6c0.7,0.4,1.2,0.9,1.6,1.6
				c0.4,0.7,0.6,1.5,0.6,2.4c0,1.9-0.6,3.3-1.9,4.4c-1.2,1-3,1.4-5.3,1.4c-2.3,0-4.1-0.5-5.3-1.5
				C-251.8,281.4-252.5,279.9-252.6,277.9z"/>
			<path d="M-227.3,282.9c-0.7,0.4-1.5,0.6-2.3,0.7c-0.8,0.1-1.5,0.1-2.1,0.1c-1.2,0-2.3-0.3-3.3-1s-1.4-1.8-1.4-3.3
				c0-1.4,0.4-2.5,1.3-3.1c0.8-0.6,1.9-1,3.2-1.2c0.2,0,0.4,0,0.6-0.1c0.2-0.1,0.5-0.1,0.8-0.1c1.5-0.2,2.3-0.7,2.3-1.3
				c0-0.5-0.3-0.9-0.8-1c-0.5-0.2-1-0.2-1.5-0.2c-0.5,0-0.9,0.1-1.3,0.2c-0.4,0.1-0.7,0.4-0.8,0.8h-3.5c0.1-1.1,0.6-2,1.4-2.6
				c0.9-0.8,2.3-1.2,4-1.2c1.9,0,3.4,0.3,4.3,1c1,0.7,1.5,1.7,1.5,2.9v4.7c0,1.4-0.3,2.5-0.8,3.2C-226,282-226.6,282.6-227.3,282.9z
				 M-228.1,276.5c-0.5,0.2-1.2,0.5-2,0.7l-1.2,0.3c-0.6,0.2-1.1,0.4-1.3,0.7c-0.2,0.4-0.4,0.8-0.4,1.1c0,0.5,0.2,0.9,0.5,1.2
				c0.3,0.3,0.8,0.4,1.3,0.4c1,0,1.7-0.3,2.3-0.8s0.8-1.3,0.8-2.3C-228.1,277.8-228.1,276.5-228.1,276.5z"/>
			<path d="M-222.9,283.5v-14.2c0-1.2,0.3-2.2,1-2.8c0.6-0.6,1.6-0.9,3.1-0.9c0.3,0,0.6,0,0.8,0.1c0.4,0,0.7,0,0.9,0.1v2.8h-0.9
				c-0.5,0-0.8,0.1-1,0.2c-0.2,0.1-0.3,0.4-0.3,0.8v0.9h2.2v0.8c0,0.5-0.2,0.9-0.5,1.3c-0.3,0.3-0.7,0.5-1.2,0.5h-0.5v10.4H-222.9z"
				/>
			<path d="M-206.8,282.9c-0.7,0.4-1.5,0.6-2.3,0.7c-0.8,0.1-1.5,0.1-2.1,0.1c-1.2,0-2.3-0.3-3.3-1s-1.4-1.8-1.4-3.3
				c0-1.4,0.4-2.5,1.3-3.1c0.8-0.6,1.9-1,3.2-1.2c0.2,0,0.4,0,0.6-0.1c0.2-0.1,0.5-0.1,0.8-0.1c1.5-0.2,2.3-0.7,2.3-1.3
				c0-0.5-0.3-0.9-0.8-1c-0.5-0.2-1-0.2-1.5-0.2c-0.5,0-0.9,0.1-1.3,0.2c-0.4,0.1-0.7,0.4-0.8,0.8h-3.5c0.1-1.1,0.6-2,1.4-2.6
				c0.9-0.8,2.3-1.2,4-1.2c1.9,0,3.4,0.3,4.3,1c1,0.7,1.5,1.7,1.5,2.9v4.7c0,1.4-0.3,2.5-0.8,3.2
				C-205.5,282-206.1,282.6-206.8,282.9z M-207.6,276.5c-0.5,0.2-1.2,0.5-2,0.7l-1.2,0.3c-0.6,0.2-1.1,0.4-1.3,0.7
				c-0.2,0.4-0.4,0.8-0.4,1.1c0,0.5,0.2,0.9,0.5,1.2c0.3,0.3,0.8,0.4,1.3,0.4c1,0,1.7-0.3,2.3-0.8s0.8-1.3,0.8-2.3
				C-207.6,277.8-207.6,276.5-207.6,276.5z"/>
			<path d="M-202.4,283.5v-6.7c0-1.3,0.2-2.5,0.6-3.4c0.4-0.9,0.9-1.6,1.6-2.2c0.7-0.5,1.4-0.9,2.3-1.1c0.9-0.2,1.8-0.4,2.7-0.4
				c0.1,0,0.2,0,0.3,0s0.2,0,0.3,0v3.7h-1.2c-1,0-1.7,0.2-2.2,0.7c-0.5,0.5-0.7,1.2-0.7,2.3v7.1L-202.4,283.5L-202.4,283.5z"/>
			<path d="M-192.6,265.7h1.9c0.5,0,0.9,0.2,1.2,0.5c0.3,0.3,0.5,0.8,0.5,1.2v1.1h-3.6V265.7z M-192.6,269.7h1.9
				c0.5,0,0.9,0.2,1.2,0.5c0.3,0.3,0.5,0.8,0.5,1.2v12h-3.6V269.7z"/>
			<path d="M-187.5,283.5v-15.9c0-0.5,0.2-1,0.5-1.3c0.4-0.4,0.8-0.6,1.3-0.6h3.6l3.5,13.6l3.5-13.6h5.4v17.9h-3.4v-14.4l-3.6,14.4
				h-3.8l-3.7-14.4v14.4H-187.5z"/>
			<path d="M-167.4,283.5v-15.9c0-0.5,0.2-1,0.5-1.3s0.8-0.5,1.3-0.5h11.1v3.1h-9.3v3.8h6.9v1.2c0,0.5-0.2,1-0.5,1.3
				c-0.4,0.4-0.8,0.5-1.3,0.5h-5.1v7.9L-167.4,283.5L-167.4,283.5z"/>
			<path d="M-152.5,277.9h3.6c0.1,1,0.5,1.8,1.2,2.2c0.7,0.5,1.6,0.7,2.8,0.7c1.1,0,1.9-0.2,2.4-0.6c0.6-0.4,0.8-0.9,0.8-1.7
				c0-1.1-1.6-2-4.7-2.7l-0.1-0.1l-0.4-0.1c-1.8-0.4-2.9-0.8-3.5-1.2c-0.7-0.4-1.2-0.9-1.4-1.7c-0.3-0.6-0.5-1.4-0.5-2.4
				c0-1.7,0.6-3,1.8-4c1.2-0.9,2.9-1.4,5.1-1.4c2.1,0,3.7,0.5,4.9,1.5c1.2,1.1,1.8,2.5,1.9,4.2h-2.1c-0.8,0-1.4-0.4-1.7-1.1
				c-0.2-0.3-0.4-0.6-0.7-0.9c-0.6-0.4-1.5-0.7-2.5-0.7c-1,0-1.8,0.2-2.2,0.6c-0.5,0.4-0.8,0.9-0.8,1.6c0,0.9,1,1.6,3,2.1
				c0.6,0.2,1,0.3,1.3,0.3c0.6,0.2,1.2,0.4,1.6,0.5c0.5,0.1,0.8,0.2,1.1,0.3c0.5,0.2,1,0.4,1.4,0.6c0.7,0.4,1.2,0.9,1.6,1.6
				c0.4,0.7,0.6,1.5,0.6,2.4c0,1.9-0.6,3.3-1.9,4.4c-1.2,1-3,1.4-5.3,1.4c-2.3,0-4.1-0.5-5.3-1.5
				C-151.7,281.4-152.4,279.9-152.5,277.9z"/>
		</g>
		<g>
			<path d="M-249.5,287.4h1.2l1.2,4.6l1.2-4.6h1.8v6h-1.2v-4.9l-1.2,4.9h-1.3l-1.2-4.9v4.9h-1.2v-5.4
				C-250.2,287.7-249.9,287.4-249.5,287.4z"/>
			<path d="M-238.9,291.1c0,1.6-0.7,2.4-2.1,2.4s-2.1-0.8-2.1-2.4c0-1.6,0.7-2.4,2.1-2.4S-238.9,289.5-238.9,291.1z M-241.9,291.1
				c0,0.9,0.3,1.4,0.9,1.4c0.6,0,0.9-0.5,0.9-1.4c0-0.9-0.3-1.4-0.9-1.4C-241.6,289.7-241.9,290.2-241.9,291.1z"/>
			<path d="M-236.7,289.4c0.3-0.5,0.7-0.7,1.3-0.7c1.2,0,1.9,0.9,1.9,2.4c0,1.6-0.7,2.3-2.2,2.4c-1.5,0-2.2-0.7-2.2-2.1v-4h0.6
				c0.4,0,0.6,0.2,0.6,0.6V289.4z M-236.7,291.1c0,0.9,0.3,1.4,1,1.4c0.7,0,1-0.5,1-1.4c0-0.9-0.4-1.3-1-1.3
				C-236.3,289.7-236.6,290.2-236.7,291.1z"/>
			<path d="M-231.9,287.4c0.4,0,0.6,0.2,0.6,0.6v0.3h-1.2v-0.9H-231.9z M-231.9,288.7c0.4,0,0.6,0.2,0.6,0.6v4.1h-1.2v-4.7
				L-231.9,288.7L-231.9,288.7z"/>
			<path d="M-228.9,288v5.4h-1.2v-6h0.6C-229.1,287.4-228.9,287.7-228.9,288z"/>
			<path d="M-225.7,293.5c-1.4,0-2.1-0.9-2.1-2.5c0-1.6,0.7-2.4,2.1-2.4c1.5,0,2.2,0.9,2.1,2.7h-3c0,0.7,0.4,1.1,0.9,1.1
				c0.3,0,0.5-0.1,0.8-0.3c0.1-0.1,0.2-0.2,0.4-0.2h0.9C-223.9,293-224.5,293.5-225.7,293.5z M-226.6,290.6h1.8
				c-0.1-0.6-0.4-0.9-0.9-0.9C-226.2,289.6-226.5,290-226.6,290.6z"/>
			<path d="M-215.1,290.8h-1.7v2.7h-1.2v-5.4c0-0.3,0.3-0.6,0.6-0.6h3.7v1h-3.1v1.3h2.3v0.4C-214.5,290.5-214.8,290.8-215.1,290.8z"
				/>
			<path d="M-212.1,287.4c0.4,0,0.6,0.2,0.6,0.6v0.3h-1.2v-0.9H-212.1z M-212.1,288.7c0.4,0,0.6,0.2,0.6,0.6v4.1h-1.2v-4.7
				L-212.1,288.7L-212.1,288.7z"/>
			<path d="M-207,293.4c-0.4,0-0.6-0.2-0.6-0.6v-2.4c0-0.5-0.3-0.7-0.8-0.7c-0.5,0-0.8,0.2-0.8,0.7v3h-1.2v-2.7c0-1.3,0.7-2,2-2
				c1.3,0,2,0.7,2,2v2.7H-207z"/>
			<path d="M-204.2,290h-1.2c0.1-0.9,0.8-1.3,1.8-1.3c1.3,0,1.9,0.4,2,1.3v1.6c0,1.3-0.8,1.9-2,2c-1.1,0.1-1.9-0.4-1.9-1.5
				c0-1.1,0.8-1.4,2-1.5c0.5-0.1,0.8-0.2,0.8-0.5c0-0.3-0.3-0.4-0.8-0.4C-204,289.6-204.2,289.7-204.2,290z M-202.8,291.5v-0.4
				c-0.3,0.1-0.6,0.2-0.9,0.3c-0.5,0.1-0.7,0.3-0.7,0.7c0,0.4,0.2,0.5,0.6,0.5C-203.2,292.5-202.8,292.2-202.8,291.5z"/>
			<path d="M-197.2,293.4c-0.4,0-0.6-0.2-0.6-0.6v-2.4c0-0.5-0.3-0.7-0.8-0.7s-0.8,0.2-0.8,0.7v3h-1.2v-2.7c0-1.3,0.7-2,2-2
				c1.3,0,2,0.7,2,2v2.7H-197.2z"/>
			<path d="M-193.5,293.5c-1.4,0-2.1-0.8-2.2-2.4c0-1.6,0.7-2.4,2.2-2.4c1.1,0,1.8,0.5,2,1.5h-1.3c-0.1-0.3-0.4-0.5-0.8-0.5
				c-0.6,0-0.9,0.5-0.9,1.4s0.3,1.4,1,1.4c0.3,0,0.5-0.1,0.7-0.3c0.1-0.1,0.2-0.2,0.4-0.2h0.9C-191.7,292.9-192.4,293.5-193.5,293.5
				z"/>
			<path d="M-189.9,287.4c0.4,0,0.6,0.2,0.6,0.6v0.3h-1.2v-0.9H-189.9z M-189.9,288.7c0.4,0,0.6,0.2,0.6,0.6v4.1h-1.2v-4.7
				L-189.9,288.7L-189.9,288.7z"/>
			<path d="M-187,290h-1.2c0.1-0.9,0.8-1.3,1.8-1.3c1.3,0,1.9,0.4,2,1.3v1.6c0,1.3-0.8,1.9-2,2c-1.1,0.1-1.9-0.4-1.9-1.5
				c0-1.1,0.8-1.4,2-1.5c0.5-0.1,0.8-0.2,0.8-0.5c0-0.3-0.3-0.4-0.8-0.4C-186.7,289.6-186.9,289.7-187,290z M-185.5,291.5v-0.4
				c-0.3,0.1-0.6,0.2-0.9,0.3c-0.5,0.1-0.7,0.3-0.7,0.7c0,0.4,0.2,0.5,0.6,0.5C-185.9,292.5-185.5,292.2-185.5,291.5z"/>
			<path d="M-182,288v5.4h-1.2v-6h0.6C-182.3,287.4-182,287.7-182,288z"/>
			<path d="M-172.6,291.7c0-0.3-0.2-0.5-0.5-0.6c-0.4-0.1-0.8-0.2-1.2-0.3c-1.2-0.3-1.8-0.8-1.8-1.6c0-1.3,0.8-1.9,2.3-1.9
				c1.4,0,2.1,0.6,2.2,1.9h-0.7c-0.3,0-0.4-0.1-0.5-0.4c-0.2-0.3-0.6-0.5-1.1-0.5c-0.6,0-1,0.2-1,0.7c0,0.4,0.4,0.7,1.2,0.8
				c0.4,0.1,0.9,0.2,1.4,0.4c0.7,0.2,1,0.7,1,1.5c-0.1,1.2-0.9,1.8-2.4,1.8c-1.6,0-2.4-0.7-2.4-2h1.2c0,0.6,0.5,1,1.2,1
				S-172.6,292.2-172.6,291.7z"/>
			<path d="M-168.3,293.5c-1.4,0-2.1-0.9-2.1-2.5c0-1.6,0.7-2.4,2.1-2.4c1.5,0,2.2,0.9,2.1,2.7h-3c0,0.7,0.4,1.1,0.9,1.1
				c0.3,0,0.5-0.1,0.8-0.3c0.1-0.1,0.2-0.2,0.4-0.2h0.9C-166.5,293-167.1,293.5-168.3,293.5z M-169.2,290.6h1.8
				c-0.1-0.6-0.4-0.9-0.9-0.9C-168.8,289.6-169.1,290-169.2,290.6z"/>
			<path d="M-165.2,291c0-1.5,0.8-2.3,2.4-2.3h0.2v1.2h-0.4c-0.7,0-1,0.3-1,1v2.4h-1.2L-165.2,291L-165.2,291z"/>
			<path d="M-157.2,288.7l-1.7,4.7h-1.2l-1.6-4.7h1.3l0.9,3.3l0.8-2.9c0.1-0.3,0.3-0.4,0.6-0.4H-157.2z"/>
			<path d="M-155.7,287.4c0.4,0,0.6,0.2,0.6,0.6v0.3h-1.2v-0.9H-155.7z M-155.7,288.7c0.4,0,0.6,0.2,0.6,0.6v4.1h-1.2v-4.7
				L-155.7,288.7L-155.7,288.7z"/>
			<path d="M-151.9,293.5c-1.4,0-2.1-0.8-2.2-2.4c0-1.6,0.7-2.4,2.2-2.4c1.1,0,1.8,0.5,2,1.5h-1.3c-0.1-0.3-0.4-0.5-0.8-0.5
				c-0.6,0-0.9,0.5-0.9,1.4s0.3,1.4,1,1.4c0.3,0,0.5-0.1,0.7-0.3c0.1-0.1,0.2-0.2,0.4-0.2h0.9C-150.1,292.9-150.8,293.5-151.9,293.5
				z"/>
			<path d="M-146.7,293.5c-1.4,0-2.1-0.9-2.1-2.5c0-1.6,0.7-2.4,2.1-2.4c1.5,0,2.2,0.9,2.1,2.7h-3c0,0.7,0.4,1.1,0.9,1.1
				c0.3,0,0.5-0.1,0.8-0.3c0.1-0.1,0.2-0.2,0.4-0.2h0.9C-144.9,293-145.6,293.5-146.7,293.5z M-147.6,290.6h1.8
				c-0.1-0.6-0.4-0.9-0.9-0.9C-147.2,289.6-147.5,290-147.6,290.6z"/>
			<path d="M-141.6,292.6c0.5,0,0.7-0.1,0.7-0.4c0-0.2-0.4-0.4-1.2-0.6c-1-0.2-1.6-0.6-1.6-1.4c0-1,0.8-1.5,1.9-1.5
				c0.6,0,1.1,0.1,1.4,0.4c0.3,0.3,0.5,0.7,0.6,1.1h-0.7c-0.3,0-0.4-0.1-0.5-0.3c-0.1-0.2-0.3-0.3-0.7-0.3c-0.5,0-0.7,0.1-0.7,0.4
				c0,0.2,0.3,0.4,0.9,0.5c0.8,0.2,1.3,0.4,1.6,0.6c0.2,0.2,0.3,0.5,0.3,0.8c0,1.1-0.9,1.6-2.1,1.6c-0.7,0-1.1-0.1-1.5-0.4
				c-0.4-0.3-0.5-0.7-0.5-1.2h1.2C-142.5,292.4-142.2,292.6-141.6,292.6z"/>
		</g>
	</g>
</g>
<g id="Layer_2">
	<g>
		<g>
			<path class="st6" d="M-225.6,282.8c0.7,0,1.3,0.2,1.7,0.6c0.4,0.4,0.7,0.9,0.7,1.6c0,0.6-0.2,1.1-0.7,1.5c-0.5,0.4-1,0.6-1.6,0.6
				h-12.8c-0.9,0-1.5-0.2-2-0.7c-0.5-0.4-0.7-1-0.7-1.7c0-0.3,0.1-0.7,0.2-1c0.1-0.3,0.3-0.6,0.5-0.9l10.5-14.7h-8.6
				c-0.7,0-1.2-0.1-1.6-0.5c-0.4-0.4-0.7-0.9-0.7-1.5c0-0.6,0.2-1.2,0.7-1.6c0.5-0.4,1-0.6,1.6-0.6l11.9,0c0.9,0,1.6,0.3,2,0.7
				c0.4,0.5,0.7,1,0.7,1.5c0,0,0,0,0,0.1s0,0.1,0,0.1c0,0.1,0,0.2,0,0.3c0,0.1,0,0.2,0,0.3c0,0.3-0.1,0.6-0.2,0.8
				c-0.1,0.3-0.3,0.5-0.4,0.7l-10.4,14.5H-225.6z"/>
			<path class="st6" d="M-218.6,283.9l6.6-17.7c0.3-0.7,0.7-1.4,1.3-1.9c0.6-0.5,1.3-0.8,2.2-0.8c0.9,0,1.6,0.3,2.2,0.8
				c0.6,0.5,1,1.2,1.3,1.9l6.4,17.7c0.1,0.3,0.2,0.5,0.2,0.8c0,0.2,0,0.4,0,0.5c0,0.6-0.2,1.1-0.7,1.5c-0.4,0.4-1,0.6-1.6,0.6
				c-0.7,0-1.2-0.2-1.6-0.5c-0.4-0.3-0.6-0.7-0.8-1.2l-1-3.1h-9.1l-1,3c-0.2,0.5-0.4,0.9-0.8,1.3c-0.4,0.3-0.9,0.5-1.6,0.5
				c-0.7,0-1.2-0.2-1.7-0.6c-0.5-0.4-0.7-1-0.7-1.6c0-0.2,0-0.3,0-0.5c0-0.1,0.1-0.2,0.1-0.4c0,0,0-0.1,0-0.1
				C-218.7,284-218.7,284-218.6,283.9L-218.6,283.9z M-211.7,278h6.2l-3-9.5h-0.1L-211.7,278z"/>
			<path class="st6" d="M-194.5,283.9l6.6-17.7c0.3-0.7,0.7-1.4,1.3-1.9c0.6-0.5,1.3-0.8,2.2-0.8c0.9,0,1.6,0.3,2.2,0.8
				c0.6,0.5,1,1.2,1.3,1.9l6.4,17.7c0.1,0.3,0.2,0.5,0.2,0.8c0,0.2,0,0.4,0,0.5c0,0.6-0.2,1.1-0.7,1.5c-0.4,0.4-1,0.6-1.6,0.6
				c-0.7,0-1.2-0.2-1.6-0.5c-0.4-0.3-0.6-0.7-0.8-1.2l-1-3.1h-9.1l-1,3c-0.2,0.5-0.4,0.9-0.8,1.3c-0.4,0.3-0.9,0.5-1.6,0.5
				c-0.7,0-1.2-0.2-1.7-0.6c-0.5-0.4-0.7-1-0.7-1.6c0-0.2,0-0.3,0-0.5c0-0.1,0.1-0.2,0.1-0.4c0,0,0-0.1,0-0.1
				C-194.5,284-194.5,284-194.5,283.9L-194.5,283.9z M-187.6,278h6.2l-3-9.5h-0.1L-187.6,278z"/>
			<path class="st6" d="M-169.2,284.6v-18.3c0-0.7,0.2-1.3,0.7-1.8c0.5-0.5,1.1-0.7,1.8-0.7l5.4,0c3.7,0,6.5,1.1,8.5,3.3
				c2,2.2,3,5.1,3,8.7c0,3.4-1,6.1-3.1,8.2c-2,2-4.7,3.1-8.1,3.1h-5.7c-0.1,0-0.2,0-0.4,0c-0.1,0-0.3,0-0.4-0.1
				c-0.5-0.1-0.9-0.3-1.3-0.7C-169,285.9-169.2,285.4-169.2,284.6L-169.2,284.6z M-164.3,282.6h3.3c2.1,0,3.7-0.6,4.6-2
				c1-1.4,1.5-3,1.5-5c0-2.1-0.5-3.8-1.5-5.2c-1-1.4-2.7-2-4.9-2l-3,0V282.6z"/>
		</g>
		<g>
			<g>
				<path class="st7" d="M-241,297l0.6-3.5c0,0,0,0,0,0c0,0,0,0,0,0c0-0.1,0.1-0.2,0.2-0.3c0.1-0.1,0.2-0.1,0.4-0.1
					c0.2,0,0.3,0,0.4,0.1c0.1,0.1,0.2,0.2,0.2,0.3l0.7,2.5h0l0.7-2.5c0-0.1,0.1-0.2,0.2-0.3c0.1-0.1,0.3-0.1,0.4-0.1
					c0.1,0,0.3,0,0.4,0.1c0.1,0.1,0.2,0.2,0.2,0.3c0,0,0,0,0,0c0,0,0,0,0,0l0.6,3.5c0,0,0,0,0,0.1c0,0,0,0,0,0.1
					c0,0.1,0,0.2-0.1,0.3c-0.1,0.1-0.2,0.1-0.3,0.1c-0.2,0-0.3,0-0.3-0.1c-0.1-0.1-0.1-0.2-0.1-0.3l-0.4-2.6h0l-0.8,2.6
					c0,0,0,0,0,0.1c0,0,0,0,0,0.1c0,0.1-0.1,0.1-0.2,0.2c-0.1,0.1-0.2,0.1-0.3,0.1c-0.1,0-0.2,0-0.3-0.1c-0.1-0.1-0.1-0.1-0.2-0.2
					c0,0,0,0,0-0.1c0,0,0,0,0-0.1l-0.8-2.6h0l-0.4,2.6c0,0.2-0.1,0.3-0.1,0.3c-0.1,0.1-0.2,0.1-0.3,0.1c-0.1,0-0.2,0-0.3-0.1
					c-0.1-0.1-0.1-0.2-0.1-0.3C-241,297.1-241,297-241,297C-241,297-241,297-241,297L-241,297z"/>
				<path class="st7" d="M-234.2,296.9c-0.4-0.4-0.6-1-0.6-1.6c0-0.7,0.2-1.2,0.6-1.6c0.4-0.4,0.9-0.7,1.6-0.7
					c0.6,0,1.2,0.2,1.6,0.7c0.4,0.5,0.6,1,0.6,1.6c0,0.6-0.2,1.2-0.6,1.6c-0.4,0.4-0.9,0.7-1.6,0.7
					C-233.3,297.6-233.8,297.3-234.2,296.9z M-231.8,296.3c0.2-0.3,0.3-0.6,0.3-1s-0.1-0.7-0.3-1c-0.2-0.3-0.5-0.4-0.9-0.4
					c-0.4,0-0.7,0.1-0.9,0.4c-0.2,0.3-0.3,0.6-0.3,1c0,0.4,0.1,0.7,0.3,1c0.2,0.3,0.5,0.4,0.9,0.4
					C-232.3,296.7-232,296.6-231.8,296.3z"/>
				<path class="st7" d="M-229.4,297v-3.5c0-0.1,0-0.3,0.1-0.3c0.1-0.1,0.2-0.1,0.4-0.1l1.2,0c0.3,0,0.6,0.1,0.8,0.3
					c0.2,0.2,0.3,0.5,0.3,0.8c0,0.2,0,0.4-0.1,0.6c-0.1,0.2-0.2,0.3-0.4,0.4v0c0.3,0,0.5,0.2,0.7,0.4c0.2,0.2,0.3,0.4,0.3,0.7
					c0,0.4-0.1,0.8-0.4,1c-0.3,0.2-0.6,0.3-1.1,0.3h-1.3c-0.1,0-0.3,0-0.4-0.1C-229.4,297.3-229.4,297.2-229.4,297L-229.4,297z
					 M-228.5,294.8h0.5c0.2,0,0.3,0,0.4-0.1c0.1-0.1,0.1-0.2,0.1-0.4c0-0.1-0.1-0.3-0.2-0.3c-0.1-0.1-0.2-0.1-0.4-0.1l-0.5,0V294.8z
					 M-228.5,296.7h0.7c0.2,0,0.3,0,0.4-0.1c0.1-0.1,0.2-0.2,0.2-0.4c0-0.1-0.1-0.3-0.2-0.4c-0.1-0.1-0.3-0.1-0.5-0.1h-0.7V296.7z"
					/>
				<path class="st7" d="M-225.1,297v-3.6c0-0.2,0-0.3,0.1-0.4c0.1-0.1,0.2-0.1,0.3-0.1c0.1,0,0.2,0,0.3,0.1s0.1,0.2,0.1,0.4v3.6
					c0,0.2,0,0.3-0.1,0.4c-0.1,0.1-0.2,0.1-0.3,0.1c-0.1,0-0.2,0-0.3-0.1C-225.1,297.3-225.1,297.2-225.1,297L-225.1,297z"/>
				<path class="st7" d="M-222.9,297v-3.5c0-0.2,0-0.3,0.1-0.4s0.2-0.1,0.3-0.1c0.1,0,0.2,0,0.3,0.1c0.1,0.1,0.1,0.2,0.1,0.4v3.2
					h1.1c0.1,0,0.2,0,0.3,0.1c0.1,0.1,0.1,0.2,0.1,0.3c0,0,0,0,0,0c0,0,0,0,0,0v0v0c0,0.1,0,0.2-0.1,0.3c-0.1,0.1-0.2,0.1-0.3,0.1
					h-1.6c-0.2,0-0.3,0-0.4-0.1C-222.9,297.3-222.9,297.1-222.9,297L-222.9,297z"/>
				<path class="st7" d="M-219.6,297v-3.5c0-0.2,0-0.3,0.1-0.4c0.1-0.1,0.2-0.2,0.4-0.2l1.6,0c0.2,0,0.3,0.1,0.3,0.1
					c0.1,0.1,0.1,0.2,0.1,0.3c0,0,0,0,0,0c0,0,0,0,0,0c0,0.1,0,0.2-0.1,0.3c-0.1,0.1-0.2,0.1-0.3,0.1l-1.1,0v0.9h1
					c0.2,0,0.3,0.1,0.3,0.1c0.1,0.1,0.1,0.2,0.1,0.3c0,0,0,0,0,0c0,0,0,0,0,0c0,0.1,0,0.2-0.1,0.3c-0.1,0.1-0.2,0.1-0.3,0.1h-1v0.9
					h1.2c0.2,0,0.3,0.1,0.3,0.1c0.1,0.1,0.1,0.2,0.1,0.3c0,0,0,0,0,0s0,0,0,0c0,0.1,0,0.2-0.1,0.3c-0.1,0.1-0.2,0.1-0.3,0.1h-1.6
					c-0.1,0-0.3,0-0.3-0.1C-219.5,297.3-219.6,297.2-219.6,297L-219.6,297z"/>
				<path class="st7" d="M-213.6,297v-3.5c0-0.1,0-0.2,0.1-0.3s0.2-0.1,0.4-0.1l1.6,0c0.1,0,0.2,0.1,0.3,0.1
					c0.1,0.1,0.1,0.2,0.1,0.3c0,0,0,0,0,0c0,0,0,0,0,0c0,0.1,0,0.2-0.1,0.3c-0.1,0.1-0.2,0.1-0.3,0.1l-1.2,0v0.9h1
					c0.2,0,0.3,0.1,0.3,0.1c0.1,0.1,0.1,0.2,0.1,0.3c0,0.1,0,0.2-0.1,0.3c-0.1,0.1-0.2,0.1-0.3,0.1h-1v1.4c0,0.2,0,0.3-0.1,0.4
					c-0.1,0.1-0.2,0.1-0.3,0.1c-0.1,0-0.2,0-0.3-0.1C-213.5,297.3-213.6,297.2-213.6,297L-213.6,297z"/>
				<path class="st7" d="M-210.1,297v-3.6c0-0.2,0-0.3,0.1-0.4c0.1-0.1,0.2-0.1,0.3-0.1c0.1,0,0.2,0,0.3,0.1
					c0.1,0.1,0.1,0.2,0.1,0.4v3.6c0,0.2,0,0.3-0.1,0.4c-0.1,0.1-0.2,0.1-0.3,0.1c-0.1,0-0.2,0-0.3-0.1
					C-210.1,297.3-210.1,297.2-210.1,297L-210.1,297z"/>
				<path class="st7" d="M-207.9,297v-3.6c0-0.2,0-0.3,0.1-0.4s0.2-0.1,0.3-0.1c0,0,0.1,0,0.1,0c0,0,0.1,0,0.1,0c0,0,0.1,0,0.1,0.1
					c0,0,0.1,0.1,0.1,0.1l2,2.7h0v-2.4c0-0.2,0-0.3,0.1-0.4c0.1-0.1,0.2-0.1,0.3-0.1c0.1,0,0.2,0,0.3,0.1c0.1,0.1,0.1,0.2,0.1,0.4
					v3.6c0,0.2,0,0.3-0.1,0.4c-0.1,0.1-0.2,0.1-0.3,0.1c0,0-0.1,0-0.1,0c0,0-0.1,0-0.1,0c0,0-0.1,0-0.1-0.1c0,0-0.1-0.1-0.1-0.1
					l-2-2.6h0v2.3c0,0.2,0,0.3-0.1,0.4c-0.1,0.1-0.2,0.1-0.3,0.1c-0.1,0-0.2,0-0.3-0.1C-207.9,297.3-207.9,297.2-207.9,297
					L-207.9,297z"/>
				<path class="st7" d="M-203.1,296.9l1.3-3.4c0.1-0.1,0.1-0.3,0.3-0.4c0.1-0.1,0.3-0.2,0.4-0.2c0.2,0,0.3,0,0.4,0.1
					c0.1,0.1,0.2,0.2,0.3,0.4l1.2,3.4c0,0.1,0,0.1,0,0.1c0,0,0,0.1,0,0.1c0,0.1,0,0.2-0.1,0.3c-0.1,0.1-0.2,0.1-0.3,0.1
					c-0.1,0-0.2,0-0.3-0.1c-0.1-0.1-0.1-0.1-0.2-0.2l-0.2-0.6h-1.7l-0.2,0.6c0,0.1-0.1,0.2-0.2,0.2c-0.1,0.1-0.2,0.1-0.3,0.1
					c-0.1,0-0.2,0-0.3-0.1c-0.1-0.1-0.1-0.2-0.1-0.3c0,0,0-0.1,0-0.1C-203.2,297-203.2,297-203.1,296.9
					C-203.1,296.9-203.1,296.9-203.1,296.9C-203.1,296.9-203.1,296.9-203.1,296.9L-203.1,296.9z M-201.8,295.7h1.2l-0.6-1.8h0
					L-201.8,295.7z"/>
				<path class="st7" d="M-198.3,297v-3.6c0-0.2,0-0.3,0.1-0.4s0.2-0.1,0.3-0.1c0,0,0.1,0,0.1,0c0,0,0.1,0,0.1,0c0,0,0.1,0,0.1,0.1
					c0,0,0.1,0.1,0.1,0.1l2,2.7h0v-2.4c0-0.2,0-0.3,0.1-0.4s0.2-0.1,0.3-0.1c0.1,0,0.2,0,0.3,0.1c0.1,0.1,0.1,0.2,0.1,0.4v3.6
					c0,0.2,0,0.3-0.1,0.4c-0.1,0.1-0.2,0.1-0.3,0.1c0,0-0.1,0-0.1,0c0,0-0.1,0-0.1,0c0,0-0.1,0-0.1-0.1c0,0-0.1-0.1-0.1-0.1l-2-2.6
					h0v2.3c0,0.2,0,0.3-0.1,0.4c-0.1,0.1-0.2,0.1-0.3,0.1s-0.2,0-0.3-0.1C-198.2,297.3-198.3,297.2-198.3,297L-198.3,297z"/>
				<path class="st7" d="M-193.4,295.2c0-0.6,0.2-1.2,0.6-1.6c0.4-0.4,0.9-0.7,1.6-0.7c0.1,0,0.2,0,0.3,0c0.1,0,0.2,0,0.3,0
					c0.2,0,0.4,0.1,0.6,0.2c0.2,0.1,0.3,0.2,0.3,0.4c0,0.1,0,0.2-0.1,0.3c-0.1,0.1-0.2,0.1-0.3,0.1c0,0,0,0-0.1,0c0,0,0,0-0.1,0
					c0,0-0.1,0-0.1,0c0,0-0.1,0-0.1-0.1c-0.1,0-0.2,0-0.2-0.1c-0.1,0-0.2,0-0.3,0c-0.4,0-0.7,0.1-0.9,0.4c-0.2,0.3-0.3,0.6-0.3,1
					c0,0.4,0.1,0.7,0.3,1c0.2,0.3,0.5,0.4,0.9,0.4c0.1,0,0.2,0,0.3,0c0.1,0,0.2-0.1,0.3-0.1c0.1,0,0.1,0,0.2-0.1c0.1,0,0.1,0,0.1,0
					c0,0,0,0,0,0c0,0,0,0,0,0c0.1,0,0.2,0,0.2,0.1c0.1,0.1,0.1,0.1,0.1,0.2c0,0,0,0.1,0,0.1c0,0,0,0.1,0,0.1c0,0.2-0.1,0.4-0.3,0.5
					c-0.2,0.1-0.4,0.2-0.6,0.2c-0.1,0-0.2,0-0.3,0.1c-0.1,0-0.2,0-0.3,0c-0.6,0-1.2-0.2-1.6-0.7
					C-193.2,296.5-193.4,295.9-193.4,295.2L-193.4,295.2z"/>
				<path class="st7" d="M-188.7,297v-3.6c0-0.2,0-0.3,0.1-0.4s0.2-0.1,0.3-0.1c0.1,0,0.2,0,0.3,0.1s0.1,0.2,0.1,0.4v3.6
					c0,0.2,0,0.3-0.1,0.4c-0.1,0.1-0.2,0.1-0.3,0.1c-0.1,0-0.2,0-0.3-0.1C-188.7,297.3-188.7,297.2-188.7,297L-188.7,297z"/>
				<path class="st7" d="M-186.8,296.9l1.3-3.4c0.1-0.1,0.1-0.3,0.3-0.4c0.1-0.1,0.3-0.2,0.4-0.2c0.2,0,0.3,0,0.4,0.1
					c0.1,0.1,0.2,0.2,0.3,0.4l1.2,3.4c0,0.1,0,0.1,0,0.1c0,0,0,0.1,0,0.1c0,0.1,0,0.2-0.1,0.3c-0.1,0.1-0.2,0.1-0.3,0.1
					c-0.1,0-0.2,0-0.3-0.1c-0.1-0.1-0.1-0.1-0.2-0.2l-0.2-0.6h-1.7l-0.2,0.6c0,0.1-0.1,0.2-0.2,0.2c-0.1,0.1-0.2,0.1-0.3,0.1
					c-0.1,0-0.2,0-0.3-0.1c-0.1-0.1-0.1-0.2-0.1-0.3c0,0,0-0.1,0-0.1C-186.8,297-186.8,297-186.8,296.9
					C-186.8,296.9-186.8,296.9-186.8,296.9C-186.8,296.9-186.8,296.9-186.8,296.9L-186.8,296.9z M-185.4,295.7h1.2l-0.6-1.8h0
					L-185.4,295.7z"/>
				<path class="st7" d="M-181.9,297v-3.5c0-0.2,0-0.3,0.1-0.4s0.2-0.1,0.3-0.1c0.1,0,0.2,0,0.3,0.1c0.1,0.1,0.1,0.2,0.1,0.4v3.2
					h1.1c0.1,0,0.2,0,0.3,0.1c0.1,0.1,0.1,0.2,0.1,0.3c0,0,0,0,0,0c0,0,0,0,0,0v0v0c0,0.1,0,0.2-0.1,0.3c-0.1,0.1-0.2,0.1-0.3,0.1
					h-1.6c-0.2,0-0.3,0-0.4-0.1C-181.8,297.3-181.9,297.1-181.9,297L-181.9,297z"/>
				<path class="st7" d="M-174.7,292.9c0.1,0,0.1,0,0.2,0c0.1,0,0.2,0,0.3,0.1c0.2,0,0.3,0.1,0.5,0.2c0.1,0.1,0.2,0.2,0.2,0.4
					c0,0.1,0,0.2-0.1,0.3c-0.1,0.1-0.2,0.1-0.3,0.1c0,0-0.1,0-0.1,0c0,0-0.1,0-0.1,0c0,0-0.1,0-0.1,0c0,0-0.1,0-0.1,0
					c-0.1,0-0.1,0-0.2-0.1c-0.1,0-0.2,0-0.3,0c-0.1,0-0.3,0-0.4,0.1c-0.1,0.1-0.2,0.2-0.2,0.3c0,0.1,0.1,0.2,0.2,0.3
					c0.1,0.1,0.2,0.1,0.4,0.2c0.1,0,0.2,0,0.2,0.1c0.1,0,0.2,0,0.2,0.1c0.3,0.1,0.5,0.2,0.7,0.4c0.2,0.2,0.3,0.5,0.3,0.9
					c0,0.4-0.2,0.8-0.5,1.1c-0.3,0.3-0.7,0.4-1.1,0.4c-0.1,0-0.2,0-0.3,0c-0.1,0-0.2,0-0.3,0c-0.2,0-0.4-0.1-0.6-0.2
					c-0.2-0.1-0.3-0.2-0.3-0.4c0-0.1,0-0.2,0.1-0.3c0.1-0.1,0.2-0.1,0.3-0.1c0.1,0,0.2,0,0.2,0c0.1,0,0.2,0.1,0.3,0.1
					c0.1,0,0.2,0.1,0.3,0.1c0.1,0,0.2,0,0.3,0c0.2,0,0.4-0.1,0.5-0.2c0.1-0.1,0.2-0.2,0.2-0.4c0-0.1-0.1-0.2-0.2-0.3
					c-0.1-0.1-0.3-0.1-0.5-0.2c-0.1,0-0.1,0-0.2-0.1c-0.1,0-0.1,0-0.2-0.1c-0.3-0.1-0.5-0.2-0.7-0.4c-0.2-0.2-0.3-0.4-0.3-0.8
					c0-0.4,0.2-0.8,0.5-1C-175.5,293.1-175.1,292.9-174.7,292.9L-174.7,292.9z"/>
				<path class="st7" d="M-172.1,297v-3.5c0-0.2,0-0.3,0.1-0.4s0.2-0.2,0.4-0.2l1.6,0c0.2,0,0.3,0.1,0.3,0.1
					c0.1,0.1,0.1,0.2,0.1,0.3c0,0,0,0,0,0c0,0,0,0,0,0c0,0.1,0,0.2-0.1,0.3c-0.1,0.1-0.2,0.1-0.3,0.1l-1.1,0v0.9h1
					c0.2,0,0.3,0.1,0.3,0.1c0.1,0.1,0.1,0.2,0.1,0.3c0,0,0,0,0,0c0,0,0,0,0,0c0,0.1,0,0.2-0.1,0.3c-0.1,0.1-0.2,0.1-0.3,0.1h-1v0.9
					h1.2c0.2,0,0.3,0.1,0.3,0.1c0.1,0.1,0.1,0.2,0.1,0.3c0,0,0,0,0,0s0,0,0,0c0,0.1,0,0.2-0.1,0.3c-0.1,0.1-0.2,0.1-0.3,0.1h-1.6
					c-0.1,0-0.3,0-0.3-0.1C-172,297.3-172.1,297.2-172.1,297L-172.1,297z"/>
				<path class="st7" d="M-168.5,297v-3.5c0-0.1,0-0.3,0.1-0.4c0.1-0.1,0.2-0.1,0.4-0.1l1.1,0c0.5,0,0.9,0.1,1.1,0.3
					c0.3,0.2,0.4,0.6,0.4,1.1c0,0.3-0.1,0.6-0.3,0.8c-0.2,0.2-0.5,0.3-0.8,0.4l1.1,1.1c0,0.1,0.1,0.1,0.1,0.1c0,0,0,0.1,0,0.1
					c0,0.1,0,0.2-0.1,0.3c-0.1,0.1-0.2,0.1-0.3,0.1c0,0-0.1,0-0.1,0c0,0-0.1,0-0.1,0c0,0-0.1,0-0.1,0c0,0-0.1-0.1-0.1-0.1l-1.4-1.7
					h0v1.4c0,0.2,0,0.3-0.1,0.4c-0.1,0.1-0.2,0.1-0.3,0.1c-0.1,0-0.2,0-0.3-0.1C-168.4,297.3-168.5,297.2-168.5,297L-168.5,297z
					 M-167.5,295h0.6c0.2,0,0.3,0,0.4-0.1c0.1-0.1,0.2-0.2,0.2-0.4c0-0.2-0.1-0.3-0.2-0.4c-0.1-0.1-0.2-0.1-0.4-0.1l-0.6,0V295z"/>
				<path class="st7" d="M-163.3,297.2l-1.4-3.5c0,0,0,0,0,0c0,0,0,0,0-0.1c0,0,0,0,0-0.1c0,0,0,0,0-0.1c0-0.1,0-0.2,0.1-0.3
					c0.1-0.1,0.2-0.1,0.3-0.1c0.1,0,0.2,0,0.3,0.1c0.1,0.1,0.1,0.1,0.2,0.2l1,2.6l1-2.6c0-0.1,0.1-0.1,0.2-0.2
					c0.1-0.1,0.2-0.1,0.3-0.1c0.1,0,0.2,0,0.3,0.1c0.1,0.1,0.1,0.2,0.1,0.3c0,0,0,0,0,0.1c0,0,0,0,0,0.1c0,0,0,0,0,0.1
					c0,0,0,0,0,0.1l-1.4,3.5c0,0.1-0.1,0.2-0.2,0.3c-0.1,0.1-0.2,0.1-0.3,0.1c-0.1,0-0.2,0-0.3-0.1
					C-163.2,297.4-163.2,297.3-163.3,297.2L-163.3,297.2z"/>
				<path class="st7" d="M-160,297v-3.6c0-0.2,0-0.3,0.1-0.4s0.2-0.1,0.3-0.1s0.2,0,0.3,0.1s0.1,0.2,0.1,0.4v3.6
					c0,0.2,0,0.3-0.1,0.4c-0.1,0.1-0.2,0.1-0.3,0.1s-0.2,0-0.3-0.1C-159.9,297.3-160,297.2-160,297L-160,297z"/>
				<path class="st7" d="M-157.9,295.2c0-0.6,0.2-1.2,0.6-1.6c0.4-0.4,0.9-0.7,1.6-0.7c0.1,0,0.2,0,0.3,0c0.1,0,0.2,0,0.3,0
					c0.2,0,0.4,0.1,0.6,0.2c0.2,0.1,0.3,0.2,0.3,0.4c0,0.1,0,0.2-0.1,0.3c-0.1,0.1-0.2,0.1-0.3,0.1c0,0,0,0-0.1,0c0,0,0,0-0.1,0
					c0,0-0.1,0-0.1,0c0,0-0.1,0-0.1-0.1c-0.1,0-0.2,0-0.2-0.1c-0.1,0-0.2,0-0.3,0c-0.4,0-0.7,0.1-0.9,0.4c-0.2,0.3-0.3,0.6-0.3,1
					c0,0.4,0.1,0.7,0.3,1c0.2,0.3,0.5,0.4,0.9,0.4c0.1,0,0.2,0,0.3,0c0.1,0,0.2-0.1,0.3-0.1c0.1,0,0.1,0,0.2-0.1c0.1,0,0.1,0,0.1,0
					c0,0,0,0,0,0c0,0,0,0,0,0c0.1,0,0.2,0,0.2,0.1c0.1,0.1,0.1,0.1,0.1,0.2c0,0,0,0.1,0,0.1c0,0,0,0.1,0,0.1c0,0.2-0.1,0.4-0.3,0.5
					c-0.2,0.1-0.4,0.2-0.6,0.2c-0.1,0-0.2,0-0.3,0.1c-0.1,0-0.2,0-0.3,0c-0.6,0-1.2-0.2-1.6-0.7
					C-157.7,296.5-157.9,295.9-157.9,295.2L-157.9,295.2z"/>
				<path class="st7" d="M-153.2,297v-3.5c0-0.2,0-0.3,0.1-0.4s0.2-0.2,0.4-0.2l1.6,0c0.2,0,0.3,0.1,0.3,0.1
					c0.1,0.1,0.1,0.2,0.1,0.3c0,0,0,0,0,0c0,0,0,0,0,0c0,0.1,0,0.2-0.1,0.3c-0.1,0.1-0.2,0.1-0.3,0.1l-1.1,0v0.9h1
					c0.2,0,0.3,0.1,0.3,0.1c0.1,0.1,0.1,0.2,0.1,0.3c0,0,0,0,0,0c0,0,0,0,0,0c0,0.1,0,0.2-0.1,0.3c-0.1,0.1-0.2,0.1-0.3,0.1h-1v0.9
					h1.2c0.2,0,0.3,0.1,0.3,0.1c0.1,0.1,0.1,0.2,0.1,0.3c0,0,0,0,0,0s0,0,0,0c0,0.1,0,0.2-0.1,0.3c-0.1,0.1-0.2,0.1-0.3,0.1h-1.6
					c-0.1,0-0.3,0-0.3-0.1C-153.2,297.3-153.2,297.2-153.2,297L-153.2,297z"/>
			</g>
		</g>
	</g>
	<g id="XMLID_11_">
		<path id="XMLID_59_" class="st7" d="M-252.6,280.9c0-5,0-10,0-15c0-0.1-0.1-0.2-0.1-0.3c0-0.6-0.2-1.1-0.5-1.5
			c-0.3-0.4-0.7-0.8-1.1-1c-0.5-0.3-1-0.4-1.5-0.4c-3.4,0-6.9,0-10.3,0c-0.4,0-0.9,0-1.3,0c-0.4,0-0.9,0.1-1.3,0.3
			c-1.1,0.5-1.7,1.5-1.7,2.8c0,1,0,2,0,2.9c0.3,0,0.4,0,0.6,0c0.5,0,0.9,0,1.4,0.1c0-0.5,0-1,0-1.5c0-0.7,0.3-1.1,0.9-1.2
			c0.1,0,0.2,0,0.3,0c3.7,0,7.4,0,11.1,0c0.2,0,0.4,0,0.5,0.1c0.5,0.2,0.7,0.5,0.7,1.1c0,4.3,0,8.6,0,12.9c0,4.3,0,8.6,0,12.9
			c0,0.2,0,0.5-0.1,0.7c-0.2,0.3-0.4,0.4-0.7,0.5c-0.1,0-0.2,0-0.4,0c-3.7,0-7.5,0-11.2,0c-0.2,0-0.4,0-0.6-0.1
			c-0.4-0.2-0.6-0.5-0.6-1c0-1.2,0-2.5,0-3.7c-0.5,0.1-0.9,0.1-1.4,0.1c-0.2,0-0.3,0-0.6,0c0,2.2,0,4.3,0,6.5c0,0.1,0,0.2,0,0.3
			c0,0.5,0.2,1,0.4,1.4c0.3,0.4,0.6,0.8,1,1c0.5,0.3,1,0.4,1.6,0.4c1.7,0,3.3,0,5,0c2.2,0,4.4,0,6.6,0c0.4,0,0.8,0,1.1-0.2
			c0.6-0.2,1.1-0.6,1.5-1.2c0.3-0.5,0.5-1.1,0.5-1.8C-252.7,290.9-252.6,285.9-252.6,280.9z M-259.2,264.5c0,0.1-0.1,0.3-0.2,0.3
			c-0.1,0-0.2,0-0.2,0c-0.6,0-1.3,0-1.9,0c-0.6,0-1.3,0-1.9,0c-0.1,0-0.1,0-0.2,0c-0.1,0-0.2-0.2-0.2-0.3c0-0.1,0.1-0.3,0.2-0.3
			c0.1,0,0.1,0,0.2,0c1.3,0,2.7,0,4,0c0.1,0,0.2,0,0.2,0C-259.2,264.2-259.2,264.4-259.2,264.5z M-259.2,297c0,0.3-0.1,0.4-0.4,0.4
			c-1.3,0-2.7,0-4,0c-0.3,0-0.4-0.1-0.4-0.4c0-0.3,0-0.5,0-0.8c0-0.3,0.1-0.4,0.4-0.4c0.7,0,1.3,0,2,0c0.7,0,1.3,0,2,0
			c0.3,0,0.4,0.1,0.4,0.5C-259.2,296.5-259.2,296.8-259.2,297z"/>
		<g id="XMLID_13_">
			<g id="XMLID_21_">
				<path id="XMLID_35_" class="st8" d="M-276.4,270c-0.3,0.8-2.5,6.8-2.8,7.7c-0.2,0.4,0,0.7,0.3,0.8c0.4,0,0.6,0.4,0.4,0.9
					c-0.1,0.5,0,0.7,0.4,0.7c2.6,0.1,11.5,4.7,13.1,6.8c-0.1,0.3-0.1,0.4-0.2,0.6c0,0,0,0,0,0c-2.9-3.6-11.7-6.8-16.5-6
					c1.1-3,3.1-8.6,4.2-11.7"/>
				<path id="XMLID_34_" class="st9" d="M-279.7,273.1c-0.3,0.9-2.6,7.2-3,8.1c-0.2,0.4,0,0.7,0.3,0.7c0.4-0.1,0.6,0.3,0.5,0.8
					c-0.1,0.5,0,0.7,0.5,0.6c2.7-0.5,14.3,3.3,15.9,5.2c-0.1,0.3-0.1,0.4-0.2,0.6c0,0,0,0,0,0c-3.1-3.2-14.5-5.5-19.5-3.6
					c1.2-3.2,3.3-9.2,4.5-12.4"/>
				<g id="XMLID_22_">
					<path id="XMLID_31_" class="st6" d="M-264.6,286.1c-3.3-4.6-8.2-7.3-13.5-7.5c1.4-3.7,2.7-7.4,4.1-11.1
						c4.7,1.9,9,6.3,11.6,12.7C-263.1,282.1-263.9,284.1-264.6,286.1z M-267.8,273.2c-1.2-1.2-2.4-2.2-3.7-3
						c-0.3-0.2-0.7-0.1-0.9,0.3c-0.3,0.6-0.6,0.8-1.2,0.6c-0.4-0.1-0.7,0.2-0.9,0.6c-0.3,0.9-0.7,1.9-1,2.8c-0.2,0.5,0,0.9,0.3,1
						c0.5,0.2,0.6,0.6,0.5,1.2c-0.1,0.5,0,0.8,0.5,1c2.8,0.8,5.4,2.4,7.5,4.6c0.4,0.4,0.6,0.4,0.7,0.1c0.2-0.3,0.5-0.3,0.8,0.1
						c0.3,0.3,0.5,0.4,0.6,0.1c0.2-0.6,0.4-1.1,0.6-1.7c0.1-0.3,0-0.8-0.2-1.2c-0.3-0.6-0.4-1.1-0.3-1.5c0.1-0.4,0-0.8-0.3-1.2
						C-265.6,275.7-266.6,274.3-267.8,273.2z"/>
					<path id="XMLID_28_" class="st6" d="M-271.4,274.9c0.4-1,1-1.4,1.8-1.4c1.3,0,2.5,1.7,2.8,3.3c0.3,1.3,0,2.2-0.8,2.4
						c-1.4,0.4-3.5-0.9-3.9-2.9C-271.6,275.7-271.6,275.2-271.4,274.9z"/>
					<path id="XMLID_24_" class="st6" d="M-266.1,279.2c0.1-0.4,0.6-0.3,0.9,0.1c0.3,0.5,0.5,1.2,0.3,1.5c-0.1,0.4-0.5,0.3-0.9-0.2
						C-266.1,280.2-266.3,279.6-266.1,279.2z"/>
					<path id="XMLID_23_" class="st6" d="M-273.4,274.9c-0.5-0.2-0.7-0.8-0.5-1.3c0.2-0.6,0.8-0.9,1.3-0.6c0.4,0.2,0.6,0.9,0.4,1.4
						C-272.4,274.9-273,275.1-273.4,274.9z"/>
				</g>
			</g>
		</g>
	</g>
</g>
</svg>
